<svg>

    <symbol id="food" width="80" height="47" viewBox="0 0 80 47" fill="none" xmlns="http://www.w3.org/2000/svg">
        <g clip-path="url(#clip0_16121_5)">
        <path d="M70.3333 34.617C70.0198 34.617 69.7847 34.4668 69.6018 34.1163C69.445 33.8158 69.3405 33.3151 69.3405 32.7141V14.236C69.3405 13.6351 69.4189 13.1343 69.6018 12.8339C69.7847 12.5334 70.0198 12.3832 70.3333 12.3832H72.0838C72.4757 12.3832 72.8154 12.4333 73.1028 12.4833C73.3901 12.5835 73.6514 12.7337 73.8343 13.0342C74.0433 13.3346 74.1739 13.7353 74.2785 14.3362C74.383 14.887 74.4352 15.6882 74.4352 16.6397V30.3606C74.4352 31.6125 74.3568 32.5138 74.1739 33.1147C73.9911 33.7157 73.7298 34.1163 73.3901 34.3166C73.0505 34.5169 72.6063 34.617 72.0838 34.567L70.3333 34.617ZM64.7161 1.61681C64.4026 1.66689 64.1413 1.81712 63.9845 2.11758C63.8278 2.41803 63.7494 2.91879 63.7494 3.51971V43.4805C63.7494 44.0814 63.8278 44.5321 64.0107 44.8827C64.1674 45.1831 64.4287 45.3834 64.7422 45.3834H72.0054C73.5208 45.3834 74.8271 45.083 75.8722 44.482C76.9173 43.8811 77.7533 42.9297 78.3803 41.7279C79.0074 40.526 79.4777 38.9236 79.7389 37.0207C80.0263 35.1178 80.157 32.9144 80.157 30.3606V16.6397C80.157 14.0858 80.0263 11.8824 79.7389 9.97954C79.4515 8.07664 79.0074 6.52428 78.3803 5.32245C77.7533 4.07055 76.9173 3.16918 75.8722 2.56826C74.8271 1.96735 73.5469 1.66689 72.0054 1.66689L64.7161 1.61681ZM55.206 28.007C55.206 29.2088 55.1798 30.3105 55.1537 31.2619C55.1014 32.2134 54.9969 33.0146 54.8402 33.7157C54.6834 34.4167 54.4222 34.9175 54.0564 35.268C53.7167 35.6186 53.2465 35.8189 52.6455 35.8189C52.0446 35.8189 51.5743 35.6186 51.2347 35.268C50.8689 34.9175 50.6338 34.4167 50.4509 33.7157C50.2941 33.0647 50.1896 32.2134 50.1374 31.2619C50.0851 30.3105 50.059 29.2088 50.0851 28.007V18.9933C50.0851 17.7914 50.1112 16.6898 50.1374 15.7383C50.1896 14.7869 50.2941 13.9856 50.4509 13.2846C50.6077 12.5835 50.8689 12.0827 51.2347 11.7322C51.5743 11.3817 52.0446 11.1814 52.6455 11.1814C53.2465 11.1814 53.7167 11.3817 54.0564 11.7322C54.4222 12.0827 54.6573 12.5835 54.8402 13.2846C54.9969 13.9356 55.1014 14.7869 55.1537 15.7383C55.206 16.6898 55.206 17.7914 55.206 18.9933V28.007ZM60.7971 15.6882C60.7971 14.9872 60.7709 14.1359 60.7187 13.1343C60.6664 12.1328 60.5619 11.0812 60.379 9.92946C60.1962 8.77771 59.9349 7.67603 59.5952 6.57436C59.2295 5.47268 58.7592 4.47116 58.1583 3.56979C57.5574 2.66841 56.7997 1.91727 55.8853 1.36643C54.9708 0.815594 53.8735 0.565213 52.5933 0.515137C51.3131 0.515137 50.2158 0.815594 49.3013 1.36643C48.3869 1.91727 47.6292 2.66841 47.0283 3.56979C46.4274 4.47116 45.9571 5.47268 45.5913 6.57436C45.2256 7.67603 44.9643 8.82779 44.8075 9.92946C44.6246 11.0812 44.5201 12.1328 44.4679 13.1343C44.4156 14.1359 44.3895 14.9872 44.3895 15.6882V31.312C44.3895 32.0131 44.4156 32.8644 44.4679 33.8659C44.5201 34.8674 44.6246 35.919 44.8075 37.0708C44.9643 38.2225 45.2517 39.3242 45.5913 40.4259C45.9571 41.5275 46.4274 42.5291 47.0283 43.4805C47.6292 44.3819 48.3869 45.133 49.3013 45.6338C50.2158 46.1846 51.3131 46.4851 52.5933 46.4851C53.8735 46.4851 54.9708 46.1846 55.8853 45.6338C56.7997 45.083 57.5574 44.3819 58.1583 43.4805C58.7592 42.5792 59.2295 41.5776 59.5952 40.4259C59.961 39.3242 60.2223 38.1724 60.379 37.0708C60.5358 35.919 60.6664 34.8674 60.7187 33.8659C60.7709 32.8644 60.7971 32.0131 60.7971 31.312V15.6882ZM36.2118 28.007C36.2118 29.2088 36.1857 30.3105 36.1596 31.2619C36.1073 32.2134 36.0028 33.0146 35.8461 33.7157C35.6893 34.4167 35.428 34.9175 35.0623 35.268C34.7226 35.6186 34.2523 35.8189 33.6514 35.8189C33.0505 35.8189 32.5802 35.6186 32.2406 35.268C31.8748 34.9175 31.6397 34.4167 31.4568 33.7157C31.3 33.0647 31.1955 32.2134 31.1432 31.2619C31.091 30.3105 31.0649 29.2088 31.091 28.007V18.9933C31.091 17.7914 31.1171 16.6898 31.1432 15.7383C31.1955 14.7869 31.3 13.9856 31.4568 13.2846C31.6135 12.5835 31.8748 12.0827 32.2406 11.7322C32.5802 11.3817 33.0505 11.1814 33.6514 11.1814C34.2523 11.1814 34.7226 11.3817 35.0623 11.7322C35.428 12.0827 35.6632 12.5835 35.8461 13.2846C36.0028 13.9356 36.1073 14.7869 36.1596 15.7383C36.2118 16.6898 36.2118 17.7914 36.2118 18.9933V28.007ZM41.8291 15.6882C41.8291 14.9872 41.803 14.1359 41.7507 13.1343C41.6984 12.1328 41.5939 11.0812 41.411 9.92946C41.2282 8.77771 40.9669 7.67603 40.6272 6.57436C40.2615 5.47268 39.7912 4.47116 39.1903 3.56979C38.5894 2.66841 37.8317 1.91727 36.9173 1.36643C36.0028 0.815594 34.9055 0.565213 33.6253 0.515137C32.3451 0.515137 31.2478 0.815594 30.3333 1.36643C29.4189 1.91727 28.6612 2.66841 28.0603 3.56979C27.4594 4.47116 26.9891 5.47268 26.6233 6.57436C26.2576 7.67603 25.9963 8.82779 25.8395 9.92946C25.6566 11.0812 25.5521 12.1328 25.4999 13.1343C25.4476 14.1359 25.4215 14.9872 25.4215 15.6882V31.312C25.4215 32.0131 25.4476 32.8644 25.4999 33.8659C25.5521 34.8674 25.6566 35.919 25.8395 37.0708C25.9963 38.2225 26.2837 39.3242 26.6233 40.4259C26.9891 41.5275 27.4594 42.5291 28.0603 43.4805C28.6612 44.3819 29.4189 45.133 30.3333 45.6338C31.2478 46.1846 32.3451 46.4851 33.6253 46.4851C34.9055 46.4851 36.0028 46.1846 36.9173 45.6338C37.8317 45.083 38.5894 44.3819 39.1903 43.4805C39.7912 42.5792 40.2615 41.5776 40.6272 40.4259C40.993 39.3242 41.2543 38.1724 41.411 37.0708C41.5678 35.919 41.6984 34.8674 41.7507 33.8659C41.803 32.8644 41.8291 32.0131 41.8291 31.312V15.6882ZM22.5476 1.61681C23.2007 1.61681 23.5142 2.2678 23.5142 3.46963V10.4803C23.5142 11.0812 23.4359 11.5319 23.2791 11.8824C23.1223 12.233 22.8611 12.3832 22.5476 12.3832H14.0303C13.7167 12.3832 13.4816 12.5334 13.2987 12.8339C13.1158 13.1343 13.0374 13.6351 13.0374 14.236V43.5306C13.0374 44.1315 12.9591 44.5822 12.8023 44.9327C12.6455 45.2332 12.3843 45.4335 12.0707 45.4335H8.23012C7.9166 45.4335 7.68146 45.2833 7.49857 44.9327C7.34181 44.5822 7.2373 44.1315 7.2373 43.5306V3.51971C7.2373 2.91879 7.31568 2.41803 7.49857 2.11758C7.68146 1.81712 7.9166 1.66689 8.23012 1.66689L22.5476 1.61681Z" fill="#B59571"/>
        <path d="M15.2843 25.4031C12.8546 25.0025 0.993032 28.7081 0.104724 24.702C-1.3845 18.0419 11.0779 21.7976 12.7501 21.8977C13.5861 21.9478 14.6312 22.2483 15.2321 21.9478C15.6501 21.6974 15.9375 20.3954 16.4078 19.8947C17.4529 18.6929 19.1511 19.3438 20.6142 19.5942C21.607 19.7445 22.5737 19.9448 23.6188 20.095C22.1295 20.4956 20.5358 20.8962 18.9682 21.2968C18.7853 21.3469 18.4979 21.1967 18.3673 21.5973C19.961 22.098 21.7638 22.1982 23.4881 22.4486C21.7899 22.9493 19.8826 23.0495 18.2105 23.6504C18.315 24.0009 18.6286 23.9008 18.8114 23.9509C20.3007 24.1512 21.9467 24.4015 23.5143 24.5518C21.8944 25.0525 20.0133 25.1527 18.3934 25.7536C18.4457 26.2544 18.7853 26.1041 18.9421 26.1041C20.4313 26.4547 22.1034 26.8553 23.6449 27.1057C21.9467 27.356 19.8565 28.1072 18.106 28.3075C16.7474 28.4577 15.9375 26.9554 15.2843 25.4031Z" fill="#B59571"/>
        <path d="M11.0779 25.8036C12.959 25.5031 14.5528 25.2527 15.2843 25.3529C15.6239 26.1541 15.9636 26.9053 16.4339 27.4561C16.878 28.0069 17.4006 28.3575 18.0799 28.2573C19.0465 28.1572 20.1177 27.8567 21.1628 27.6063C21.9205 27.406 22.652 27.2057 23.3313 27.1056C22.652 27.0054 21.9727 26.8552 21.2673 26.705C20.4574 26.5547 19.6736 26.3544 18.942 26.1541H18.8114C18.6285 26.1541 18.3934 26.1541 18.3673 25.7535V25.7034H18.3934C19.2817 25.3529 20.2745 25.1526 21.2673 25.0024C21.9466 24.9022 22.6259 24.752 23.2529 24.6018C22.0772 24.4515 20.8493 24.3013 19.6997 24.1511C19.4123 24.101 19.1249 24.0509 18.8375 24.0509H18.7069C18.524 24.0509 18.315 24.0509 18.2105 23.7505L18.1844 23.7004H18.2105C19.1511 23.3498 20.17 23.1495 21.1889 22.9993C21.8682 22.8992 22.5737 22.7489 23.2268 22.5987C22.8872 22.5486 22.5214 22.4986 22.1818 22.4485C20.8754 22.2982 19.543 22.148 18.3673 21.7975H18.315L18.3411 21.7474C18.4456 21.447 18.6285 21.447 18.7853 21.447H18.942L20.1961 21.1465C21.2412 20.8961 22.3124 20.5957 23.3052 20.3453C22.7043 20.2451 22.1034 20.145 21.5286 20.0448C21.2151 19.9947 20.9277 19.9447 20.588 19.8946L19.8042 19.7444C18.5501 19.494 17.2438 19.1935 16.4077 20.195C16.1987 20.4454 16.0158 20.846 15.8591 21.2466C15.6501 21.6973 15.4672 22.148 15.232 22.2982C14.814 22.4986 14.187 22.4485 13.5599 22.3483C13.2725 22.2982 12.9851 22.2482 12.7239 22.2482C12.4365 22.2482 11.8356 22.0979 11.0518 21.9477C8.23009 21.0964 2.92637 20.0448 0.862355 21.7474C0.130807 22.3483 -0.182713 23.2497 0.130807 24.7019C0.731722 27.4561 6.68861 26.5046 11.0779 25.8036ZM15.2843 25.453C14.5528 25.3529 12.959 25.6033 11.0779 25.9037C6.68861 26.6048 0.705595 27.5562 0.0785537 24.7019C-0.261094 23.1996 0.0785537 22.2482 0.836228 21.5972C2.92637 19.8946 8.23009 20.9462 11.0779 21.497C11.8617 21.6473 12.4626 21.7975 12.75 21.7975C13.0113 21.7975 13.2987 21.8476 13.5861 21.8976C14.2131 21.9978 14.814 22.0479 15.232 21.8476C15.4411 21.7474 15.6239 21.2967 15.833 20.846C16.0158 20.4454 16.1726 20.0448 16.4077 19.7944C17.2699 18.7929 18.5763 19.0934 19.8565 19.3438L20.6403 19.494C20.9277 19.5441 21.2673 19.5941 21.5808 19.6442C22.2601 19.7444 22.9394 19.8946 23.6448 19.9447L23.9322 19.9947L23.671 20.0949C22.5998 20.3954 21.4502 20.6958 20.3006 20.9963L19.0465 21.2967H18.8898C18.7592 21.2967 18.6024 21.2967 18.4979 21.497C19.6736 21.8476 20.9799 21.9978 22.2863 22.148C22.7304 22.1981 23.1484 22.2482 23.5926 22.2982L23.8539 22.3483L23.5926 22.3984C22.861 22.5987 22.0772 22.7489 21.2934 22.8992C20.3006 23.0995 19.2817 23.2497 18.3673 23.6002C18.4456 23.8005 18.6285 23.8005 18.7853 23.8005H18.9159C19.2033 23.8506 19.4907 23.9007 19.7781 23.9007C21.0322 24.101 22.3385 24.2512 23.5926 24.4014L23.8539 24.4515L23.5926 24.5517C22.861 24.752 22.1034 24.9022 21.3457 25.0524C20.379 25.2527 19.4123 25.403 18.524 25.7535C18.5763 26.054 18.7592 26.0039 18.9159 26.0039H19.0465C19.8042 26.1541 20.588 26.3544 21.3718 26.5547C22.1556 26.705 22.9656 26.9053 23.7232 27.0054V27.1056C22.9656 27.2057 22.1034 27.4561 21.2412 27.6564C20.1961 27.9068 19.1249 28.2072 18.1582 28.3074C17.4789 28.4075 16.9303 28.057 16.4861 27.5062C15.9636 27.0054 15.5978 26.2543 15.2843 25.453Z" fill="#B59571"/>
        </g>
        <defs>
        <clipPath id="clip0_16121_5">
        <rect width="80" height="46" fill="white" transform="translate(0 0.5)"/>
        </clipPath>
        </defs>
    </symbol>

    <symbol id="visa" width="41" height="41" viewBox="0 0 41 41" fill="currentColor" xmlns="http://www.w3.org/2000/svg">
        <g clip-path="url(#clip0_16121_13)">
        <path d="M37.9998 33.8334H3.33317C1.86095 33.8334 0.666504 32.639 0.666504 31.1667V9.83341C0.666504 8.36119 1.86095 7.16675 3.33317 7.16675H37.9998C39.4721 7.16675 40.6665 8.36119 40.6665 9.83341V31.1667C40.6665 32.639 39.4721 33.8334 37.9998 33.8334ZM20.4887 23.569L20.0898 26.069C20.9676 26.4445 21.9887 26.6634 23.0609 26.6634C23.1465 26.6634 23.2309 26.6623 23.3154 26.659H23.3032C23.4009 26.6645 23.5143 26.6679 23.6298 26.6679C24.8621 26.6679 26.0043 26.2812 26.9421 25.6223L26.9232 25.6345C27.7743 25.0034 28.3209 24.0023 28.3209 22.8734C28.3209 22.8679 28.3209 22.8623 28.3209 22.8567V22.8579C28.3209 21.6356 27.5032 20.6201 25.8909 19.8356C25.4176 19.6045 25.0132 19.3623 24.6332 19.089L24.6587 19.1067C24.4387 18.9623 24.2921 18.7234 24.2776 18.449V18.4467C24.2954 18.1579 24.4609 17.9112 24.6987 17.7801L24.7032 17.7779C25.0165 17.5956 25.3921 17.4879 25.7943 17.4879C25.841 17.4879 25.8876 17.489 25.9343 17.4923H25.9276H26.0165C26.0421 17.4923 26.0721 17.4912 26.1021 17.4912C26.8176 17.4912 27.4965 17.6456 28.1087 17.9223L28.0776 17.9101L28.3376 18.049L28.7365 15.6367C27.9865 15.3401 27.1165 15.1679 26.2065 15.1679C26.1887 15.1679 26.1698 15.1679 26.1521 15.1679H26.1554C26.0843 15.1645 26.0009 15.1623 25.9176 15.1623C24.6998 15.1623 23.5709 15.5479 22.6476 16.2034L22.6654 16.1912C21.8298 16.7867 21.2909 17.7512 21.2909 18.8423V18.8479C21.2798 20.0234 22.1265 21.039 23.8087 21.8701C24.2532 22.0645 24.6365 22.3023 24.9798 22.5879L24.9721 22.5812C25.1665 22.7456 25.2921 22.9867 25.3021 23.2567V23.259V23.2612C25.3021 23.6156 25.091 23.9201 24.7865 24.0567L24.7809 24.059C24.4476 24.2345 24.0521 24.3367 23.6321 24.3367C23.6154 24.3367 23.5976 24.3367 23.5809 24.3367H23.5832C23.5587 24.3367 23.5287 24.3367 23.4998 24.3367C22.5476 24.3367 21.6454 24.1256 20.8365 23.7479L20.8754 23.7645L20.4943 23.5734L20.4887 23.569ZM31.7387 24.8367H35.4221C35.4813 25.0908 35.5972 25.6464 35.7698 26.5034H38.4443L36.1176 15.3579H33.8954C33.8565 15.3545 33.811 15.3523 33.7643 15.3523C33.1398 15.3523 32.6054 15.739 32.3876 16.2856L32.3843 16.2956L28.1176 26.5034H31.1398L31.7465 24.8379L31.7387 24.8367ZM17.2121 15.3579L15.4054 26.5034H18.2876L20.0932 15.3579H17.2121ZM6.13539 17.6323L8.47984 26.4856H11.5176L16.0454 15.3579H12.9943L10.1787 22.9623L9.88317 21.4167L8.87873 16.2956C8.77762 15.7523 8.30762 15.3456 7.74206 15.3456C7.68428 15.3456 7.6265 15.3501 7.57095 15.3579L7.57762 15.3567H2.92539L2.89095 15.5823C6.47317 16.4923 8.8265 18.4556 9.88651 21.4156C9.54317 20.5356 9.04206 19.7856 8.41317 19.1667L8.41206 19.1656C7.78206 18.519 7.02539 18.0001 6.18206 17.6456L6.13762 17.629L6.13539 17.6323ZM34.9543 22.5445H32.5543C32.7165 22.1164 33.0987 21.0793 33.701 19.4334L33.7521 19.2767C33.7987 19.1612 33.8565 19.0101 33.9298 18.8256C34.0032 18.6412 34.0521 18.4901 34.0854 18.3745L34.2943 19.329L34.9532 22.5401L34.9543 22.5445Z" />
        </g>
        <defs>
        <clipPath id="clip0_16121_13">
        <rect width="40" height="40" fill="white" transform="translate(0.666504 0.5)"/>
        </clipPath>
        </defs>
    </symbol>

    <symbol id="mir" width="40" height="40" viewBox="0 0 40 40" fill="currentColor" xmlns="http://www.w3.org/2000/svg">
        <g clip-path="url(#clip0_16125_346)">
        <path d="M2.05128 7H37.9487C39.0821 7 40 7.95479 40 9.1336V31.5364C40 32.7152 39.0821 33.67 37.9487 33.67H2.05128C0.917949 33.67 0 32.7152 0 31.5364V9.1336C0 7.95479 0.917949 7 2.05128 7Z"/>
        <path d="M27.9023 19.8284V25.5891H30.9793V22.1753H34.4664C35.9331 22.1647 37.1793 21.1885 37.6511 19.8284H27.9023Z" fill="#333333"/>
        <path d="M27.4922 15.0811C27.6717 17.4333 29.8153 19.2949 32.4307 19.2949C32.4409 19.2949 37.7794 19.2949 37.7794 19.2949C37.8204 19.0816 37.8409 18.8575 37.8409 18.6282C37.8409 16.6759 36.3281 15.0971 34.4563 15.0811H27.4922Z" fill="#333333"/>
        <path d="M22.9384 19.2362V19.2309V19.2362C22.9743 19.1722 23.0307 19.1349 23.1025 19.1349C23.205 19.1349 23.282 19.2202 23.2871 19.3216V25.5357H26.364V15.0811H23.2871C22.8973 15.0971 22.4563 15.3904 22.2922 15.7585L19.8461 21.2205C19.8409 21.2418 19.8307 21.2632 19.8204 21.2845C19.7845 21.3378 19.723 21.3752 19.6512 21.3752C19.5384 21.3752 19.4461 21.2792 19.4461 21.1618V15.0811H16.3691V25.5357H19.4461C19.8307 25.5144 20.2614 25.221 20.4255 24.8583L22.9384 19.2522C22.9332 19.2469 22.9384 19.2416 22.9384 19.2362Z" fill="#333333"/>
        <path d="M11.4512 19.4176L9.65124 25.5357H7.43586L5.64099 19.4122C5.6256 19.3162 5.54355 19.2415 5.44099 19.2415C5.32816 19.2415 5.24099 19.3375 5.24099 19.4496V25.5303H2.16406V15.0757H4.80509H5.5897C6.15381 15.0757 6.74868 15.5344 6.91278 16.0945L8.41022 21.1884C8.48714 21.4445 8.60509 21.4391 8.68201 21.1884L10.1794 16.0945C10.3435 15.5291 10.9384 15.0757 11.5025 15.0757H12.2871H14.9282V25.5303H11.8512V19.4496C11.8512 19.4496 11.8512 19.4496 11.8512 19.4442C11.8512 19.3269 11.7589 19.2362 11.6512 19.2362C11.5487 19.2415 11.4666 19.3162 11.4512 19.4176Z" fill="#333333"/>
        </g>
        <defs>
        <clipPath id="clip0_16125_346">
        <rect width="40" height="26.67" fill="white" transform="translate(0 7)"/>
        </clipPath>
        </defs>
    </symbol>

    <symbol id="yt" width="40" height="40" viewBox="0 0 40 40" fill="none" xmlns="http://www.w3.org/2000/svg">
        <path d="M35.9686 12.3729C35.7799 11.6998 35.4124 11.0904 34.905 10.6094C34.3833 10.1137 33.7439 9.75912 33.0471 9.57911C30.4394 8.89177 19.9918 8.89177 19.9918 8.89177C15.6363 8.84222 11.2819 9.06017 6.95311 9.5444C6.25632 9.73771 5.61809 10.1002 5.09521 10.5997C4.58144 11.094 4.2093 11.7036 4.0149 12.3715C3.54792 14.8873 3.32103 17.4417 3.33728 20.0003C3.32062 22.5567 3.54696 25.1103 4.0149 27.6291C4.20514 28.2942 4.57589 28.901 5.09104 29.3912C5.6062 29.8814 6.24772 30.2355 6.95311 30.4229C9.59556 31.1089 19.9918 31.1089 19.9918 31.1089C24.3528 31.1585 28.7128 30.9405 33.0471 30.4562C33.7439 30.2762 34.3833 29.9216 34.905 29.4259C35.4188 28.9358 35.784 28.3262 35.9673 27.6624C36.4464 25.1477 36.6794 22.5922 36.6629 20.0323C36.699 17.4615 36.4663 14.894 35.9686 12.3715V12.3729ZM16.6703 24.7548V15.2473L25.3628 20.0017L16.6703 24.7548Z" fill="#B59571"/>
    </symbol>

    <symbol id="vk" width="40" height="40" viewBox="0 0 40 40" fill="none" xmlns="http://www.w3.org/2000/svg">
        <path d="M36.6144 11.475C36.8978 12.2409 36.0273 14.028 34.0029 16.8363C33.7195 17.2192 33.3551 17.7298 32.9097 18.3681C31.9785 19.5594 31.4522 20.3466 31.3307 20.7295C31.1283 21.2401 31.2092 21.7295 31.5736 22.1975C31.7761 22.4528 32.2417 22.9634 32.9705 23.7293H33.0312V23.7931C34.6912 25.3674 35.8046 26.7077 36.3714 27.814L36.4929 28.0693L36.6144 28.548V29.1543L36.1893 29.633L35.1568 29.8564L30.7234 29.984C30.44 30.0266 30.1059 29.984 29.7213 29.8564C29.3367 29.7287 29.0431 29.6011 28.8407 29.4735L28.4763 29.2182C28.1119 28.9629 27.707 28.5799 27.2617 28.0693C26.8163 27.5587 26.4215 27.0907 26.0774 26.6652C25.7332 26.2397 25.379 25.8887 25.0146 25.6121C24.6502 25.3355 24.3263 25.2398 24.0429 25.3249C24.0024 25.3249 23.9518 25.3462 23.891 25.3887C23.8303 25.4313 23.7291 25.527 23.5874 25.6759C23.4457 25.8248 23.3242 26.0057 23.223 26.2184C23.1218 26.4312 23.0307 26.7397 22.9497 27.1439C22.8687 27.5481 22.8282 28.0268 22.8282 28.5799C22.8282 28.7501 22.808 28.9097 22.7675 29.0586C22.727 29.2075 22.6865 29.3245 22.646 29.4096L22.5853 29.4735C22.3424 29.7287 22.0185 29.8564 21.6136 29.8564H19.6702C18.8199 29.9415 17.9595 29.8564 17.089 29.6011C16.2186 29.3458 15.4594 29.016 14.8116 28.6118C14.1638 28.2076 13.5767 27.8034 13.0504 27.3992C12.524 26.9949 12.1191 26.6439 11.8357 26.3461L11.4106 25.8993C11.2891 25.8142 11.1272 25.644 10.9247 25.3887C10.7223 25.1334 10.3073 24.5803 9.67974 23.7293C9.05218 22.8783 8.43474 21.9635 7.82742 20.9848C7.2201 20.0062 6.51156 18.7191 5.7018 17.1235C4.89204 15.5279 4.14301 13.8791 3.45472 12.1771C3.37374 11.9644 3.33325 11.7942 3.33325 11.6665C3.33325 11.5389 3.3535 11.4325 3.39398 11.3474L3.45472 11.2836C3.61667 11.0283 3.94057 10.9006 4.42643 10.9006H9.22425C9.34572 10.9006 9.46718 10.9325 9.58865 10.9964L9.89231 11.1559L9.95304 11.2198C10.1555 11.3474 10.2972 11.5389 10.3782 11.7942C10.6211 12.3899 10.8944 13.0175 11.198 13.677C11.5017 14.3365 11.7345 14.8365 11.8965 15.1768L12.1394 15.6874C12.5038 16.4108 12.8378 17.0384 13.1415 17.5703C13.4451 18.1021 13.7184 18.517 13.9613 18.8148C14.2043 19.1127 14.4472 19.3467 14.6901 19.5169C14.9331 19.6871 15.1355 19.7722 15.2975 19.7722C15.4594 19.7722 15.6214 19.7509 15.7833 19.7084L15.844 19.6126L16.0566 19.1978L16.2995 18.3681L16.4514 16.9001V14.6024C16.4109 14.1344 16.3501 13.6983 16.2692 13.294C16.1882 12.8898 16.1072 12.6026 16.0262 12.4324L15.9655 12.2409C15.6821 11.8154 15.176 11.5389 14.4472 11.4112C14.3257 11.4112 14.3662 11.2623 14.5687 10.9645C14.7711 10.7517 14.9938 10.5815 15.2367 10.4539C15.844 10.1135 17.2206 9.96454 19.3665 10.0071C20.2977 10.0071 21.0872 10.0922 21.735 10.2624C21.9375 10.3049 22.1197 10.3794 22.2816 10.4858C22.4436 10.5921 22.565 10.7411 22.646 10.9325C22.727 11.124 22.7877 11.3155 22.8282 11.507C22.8687 11.6984 22.889 11.975 22.889 12.3367V13.3259C22.8485 13.6663 22.8282 14.0918 22.8282 14.6024V16.1342C22.8282 16.2619 22.8181 16.5172 22.7979 16.9001C22.7776 17.283 22.7675 17.5809 22.7675 17.7936C22.7675 18.0064 22.7877 18.251 22.8282 18.5276C22.8687 18.8042 22.9396 19.0382 23.0408 19.2297C23.142 19.4212 23.2736 19.5594 23.4355 19.6445C23.5165 19.6871 23.6076 19.719 23.7088 19.7403C23.8101 19.7615 23.9619 19.6977 24.1643 19.5488C24.3668 19.3999 24.5894 19.1871 24.8324 18.9106C25.0753 18.634 25.379 18.2191 25.7434 17.666C26.1077 17.1128 26.4924 16.4746 26.8973 15.7513C27.5856 14.4748 28.2131 13.0919 28.78 11.6027C28.8204 11.5176 28.871 11.4219 28.9318 11.3155C28.9925 11.2091 29.0634 11.1347 29.1443 11.0921H29.2051L29.2658 11.0283L29.5087 10.9645H29.8731L34.8531 10.9006C35.2985 10.8581 35.673 10.8794 35.9767 10.9645C36.2803 11.0496 36.4524 11.1559 36.4929 11.2836L36.6144 11.475Z" fill="#B59571"/>
    </symbol>

    <symbol id="tg" width="40" height="40" viewBox="0 0 40 40" fill="none" xmlns="http://www.w3.org/2000/svg">
        <path d="M29.6112 11.228L9.92656 18.4687C8.58316 18.9834 8.59093 19.6983 9.68008 20.0171L14.7339 21.5209L26.427 14.4835C26.9799 14.1626 27.4851 14.3352 27.0698 14.6869L17.5961 22.8426H17.5939L17.5961 22.8437L17.2475 27.8128C17.7582 27.8128 17.9836 27.5893 18.27 27.3256L20.7248 25.0487L25.8308 28.6463C26.7723 29.1409 27.4484 28.8867 27.6827 27.8149L31.0345 12.7467C31.3776 11.4345 30.5094 10.8404 29.6112 11.228Z" fill="#B59571"/>
    </symbol>




</svg>